<svg class="mash"
width="20" height="20"
viewBox="0 0 35 35"
fill="none"
xmlns="http://www.w3.org/2000/svg">
									<path d="M30 27.7151C30 28.3623 29.4754 28.8869 28.8281 28.8869H1.17188C0.524597 28.8869 0 28.3623 0 27.7151C0 27.0678 0.524597 26.5432 1.17188 26.5432H28.8281C29.4754 26.5432 30 27.0678 30 27.7151ZM4.7747 15.8663L18.1744 20.7307C18.3064 20.7786 18.4412 20.8012 18.574 20.8012C19.053 20.8012 19.5028 20.5053 19.6758 20.029C19.8965 19.4206 19.5824 18.7484 18.9741 18.5275L5.57465 13.6633C4.66232 13.3321 4.04686 12.4505 4.04297 11.4743V8.71444L4.63051 10.1143C4.75571 10.4127 4.99878 10.646 5.30205 10.759L13.662 13.8718C14.0382 14.0119 14.4603 13.9497 14.78 13.7066C15.0998 13.4635 15.2728 13.0737 15.2385 12.6734L14.5402 4.53002C15.1227 4.81726 15.5681 5.33934 15.7539 5.96808L18.4927 15.2328C18.4978 15.2495 18.504 15.2653 18.5094 15.2815C18.5097 15.2824 18.5101 15.2836 18.5106 15.2847C18.6351 15.6441 18.9191 15.907 19.2593 16.0165L23.0452 17.422C23.0477 17.4229 23.0502 17.4238 23.053 17.4248C23.3253 17.5239 24.1157 18.1249 24.947 19.1006C25.5524 19.8111 25.8925 20.3801 26.0555 20.7408C25.6837 20.7312 25.0552 20.6513 24.1262 20.3812C23.5048 20.2006 22.8543 20.5579 22.6737 21.1796C22.4931 21.801 22.8506 22.4512 23.4721 22.6318C24.128 22.8225 25.09 23.0555 25.9486 23.0834C26.0033 23.085 26.0566 23.0859 26.109 23.0859C27.6974 23.0859 28.2298 22.2892 28.4063 21.8035C28.7654 20.8145 28.2751 19.4822 26.949 17.8432C26.1211 16.8201 24.8746 15.5953 23.8575 15.2236L20.5737 14.0044L18.0016 5.30364C17.5816 3.88297 16.4994 2.73261 15.1069 2.22678C15.1032 2.22541 15.0993 2.22403 15.0957 2.22266L12.1321 1.17987C11.5215 0.965183 10.8524 1.28608 10.6377 1.8965C10.4228 2.50693 10.7437 3.17595 11.3541 3.39087L12.1131 3.65775L12.7453 11.0296L6.59523 8.73961L5.90492 7.09487C5.8992 7.08091 5.89302 7.06717 5.88661 7.05367C5.73807 6.73461 5.55496 6.47529 5.37895 6.24251C4.77837 5.44761 4.06013 4.90561 3.24417 4.63141C2.88689 4.51148 2.49321 4.57076 2.18697 4.79094C1.88072 5.01113 1.69922 5.36521 1.69922 5.7424V11.4789C1.707 13.4379 2.94273 15.2009 4.7747 15.8663Z" fill="#A89B9D"></path>
								</svg>
