        <svg
          class="mash"
          width="20"
          height="20"
          viewBox="0 0 35 35"
          fill="green"
          xmlns="http://www.w3.org/2000/svg"
        >
          <path
            d="M29.9989 26.1918C29.9989 26.8389 29.4743 27.3635 28.827 27.3635H1.17197C0.524698 27.3635 0.00010261 26.8389 0.00010261 26.1918C0.00010261 25.5446 0.524698 25.02 1.17197 25.02H28.827C29.4743 25.02 29.9989 25.5446 29.9989 26.1918ZM0.425135 15.9739L4.81942 19.6088C5.67681 20.3181 6.7418 20.6808 7.81159 20.6808C8.62228 20.6808 9.43573 20.4723 10.1636 20.0487L22.4332 12.9367C22.993 12.6123 23.1839 11.8952 22.8594 11.3352C22.5348 10.7753 21.8177 10.5844 21.2579 10.909L8.9862 18.0222C8.14118 18.5143 7.06681 18.4261 6.3131 17.8027L4.14789 16.0119L5.65598 16.4745C5.96703 16.5699 6.30395 16.5317 6.5857 16.369L14.2967 11.914C14.6437 11.7137 14.8641 11.3498 14.8813 10.9493C14.8982 10.549 14.7096 10.1676 14.3809 9.93831L7.70973 5.2847C8.02101 5.13295 8.32245 5.04826 8.59161 5.03979C8.87268 5.03041 9.21028 5.11029 9.5948 5.27646L18.4642 9.10587C18.477 9.11136 18.4903 9.11525 18.5033 9.12052C18.5111 9.12349 18.5189 9.12624 18.5269 9.12921C18.5571 9.1402 18.5873 9.15004 18.6177 9.15851C18.6205 9.15943 18.6232 9.16011 18.6262 9.1608C18.7262 9.18758 18.8276 9.20223 18.9281 9.20223C19.154 9.20223 19.3747 9.13631 19.5628 9.01546L23.0606 7.01138C23.0631 7.01023 23.0654 7.00863 23.0677 7.00749C23.3112 6.86558 24.2558 6.66439 25.5096 6.68179C26.4338 6.69483 27.0772 6.81706 27.4459 6.93379C27.231 7.16816 26.8165 7.5433 26.0255 8.07636C25.4888 8.43799 25.3469 9.16629 25.7087 9.70302C25.9351 10.0388 26.3047 10.2201 26.6815 10.2201C26.9067 10.2201 27.1344 10.1553 27.3354 10.0198C28.1722 9.45583 28.7867 8.94954 29.2136 8.47187C30.3099 7.24552 30.0224 6.28788 29.7535 5.826C29.2282 4.92398 27.9181 4.42639 25.8595 4.34697C24.5561 4.29593 22.8308 4.43624 21.8933 4.97937L18.8533 6.72116L10.5238 3.12475C9.82048 2.82125 9.14528 2.67728 8.51746 2.6972C7.78618 2.72031 7.04255 2.94942 6.30875 3.37674L3.57202 4.96404C3.01218 5.28882 2.82175 6.0059 3.14653 6.56575C3.47131 7.12559 4.1884 7.31602 4.74801 6.99146L5.46441 6.57582L11.5291 10.8065L5.85534 14.0843L4.15315 13.562C4.13873 13.5576 4.12431 13.5535 4.10966 13.5496C3.77 13.4596 3.45323 13.4342 3.16164 13.4203C2.2246 13.3747 1.32464 13.6011 0.557657 14.073C0.23585 14.2713 0.0291705 14.6123 0.00284918 14.9895C-0.0234722 15.3665 0.133769 15.7331 0.425135 15.9739Z"
            fill="#A89B9D"
          ></path>
        </svg>
